<svg width="398" height="222" viewBox="0 0 398 222" fill="none" xmlns="http://www.w3.org/2000/svg">
<path d="M31.6069 125.481C42.2284 152.247 55.6496 187.362 97.64 203.289C139.63 219.217 266.475 233.549 350.047 203.289C408.576 182.098 420.782 73.4828 342.525 27.6072C264.269 -18.2684 153.463 4.77111 83.8926 20.7033C14.322 36.6355 18.3302 92.023 31.6069 125.481Z" fill="#5094FB"/>
<path d="M26.3934 35.6517C12.1479 43.5242 3.27574 57.0512 0.620361 62.8306C0.620361 62.8306 6.52881 66.5579 6.4499 67.6631C6.37099 68.7683 0.620361 64.1897 0.620361 64.1897C-0.160666 67.28 3.90051 77.9196 26.3934 89.541C54.5096 104.068 134.641 92.8212 144.481 85.3236C154.322 77.8259 147.762 70.7969 151.51 67.9853C154.509 65.736 185.562 77.0449 200.714 82.9806C198.527 79.3879 193.403 70.3283 190.404 62.8306C187.405 55.333 191.654 35.0269 194.153 25.811C188.842 27.6855 176.159 32.8401 167.911 38.4633C157.602 45.4924 153.853 55.8016 151.51 50.647C149.167 45.4924 121.988 15.5018 87.3118 10.3472C52.6352 5.19254 44.2004 25.811 26.3934 35.6517Z" fill="#3C80E7"/>
<path d="M87.3113 10.3472C52.6347 5.19254 45.9277 23.7196 26.3933 35.6517C84.61 16.0849 121.23 38.622 151.511 50.647C151.511 44.9848 121.988 15.5018 87.3113 10.3472Z" fill="url(#paint0_linear_12:325)"/>
<path d="M50.7827 33.7229C40.3818 36.8747 31.4781 42.9156 28.3264 45.542C18.4235 53.8498 28.3264 48.5341 36.0136 43.2165C43.7008 37.899 66.1476 35.6928 94.1195 45.542C122.091 55.3913 79.9366 61.3009 66.1476 58.1491C52.3586 54.9974 45.6611 49.4818 60.632 61.3009C75.6029 73.12 152.427 64.0587 129.183 45.542C105.939 27.0254 63.7837 29.7832 50.7827 33.7229Z" fill="#5094FB"/>
<path d="M202.861 195.286L29.7137 157.907L24.4064 150.271L73.8566 145.475L102.752 41.3877L281.127 77.7211L259.495 182.615L202.861 195.286Z" fill="#CCCCCC"/>
<g opacity="0.2">
<path d="M207.285 186.274L26.0237 150.365M41.5852 148.898L218.806 183.61M57.9054 147.571L234.068 181.108M74.2952 145.864L142.587 160.235" stroke="black"/>
<path d="M207.798 186.362L243.825 179.607L141.497 159.842" stroke="black"/>
<path d="M43.9634 153.604L89.4458 149.334" stroke="black"/>
<path d="M74.1188 159.121L105.062 153.45M103.056 164.416L128.516 157.741M131.99 166.096C133.208 166.319 150.63 163.87 155.257 162.093M153.506 170.956L175.803 166.096M164.264 177.532L194.287 170.956M210.8 173.352L181.277 180.608M216.554 177.532L204.295 180.608" stroke="black"/>
</g>
<path d="M79.6826 142.565L106.471 47.6577L272.564 83.8114L247.181 176.65L79.6826 142.565Z" fill="white"/>
<path d="M126.696 66.4242C125.663 68.0674 120.529 71.3875 118.692 72.3767C115.254 69.9643 110.192 65.6686 112.818 62.5883C115.445 59.508 118.256 60.4019 120.235 63.9453C124.306 58.3278 127.988 64.3702 126.696 66.4242Z" stroke="#FF4C8D" stroke-width="2"/>
<path d="M195.194 114.687L134.003 101.934C131.255 101.361 128.576 103.164 128.071 105.924C127.584 108.581 129.299 111.143 131.941 111.708L193.069 124.76C195.907 125.366 198.685 123.507 199.208 120.652C199.71 117.904 197.929 115.257 195.194 114.687Z" fill="#FF6A08"/>
<path d="M256.55 156.648C255.428 148.796 261.691 149.17 264.963 150.339L256.55 134.214C266.832 110.377 288.379 58.4978 292.305 41.672C297.212 20.6397 306.326 31.857 330.163 66.2097C353.999 100.562 353.999 139.122 344.184 156.648C334.369 174.175 290.903 198.012 264.963 202.218C239.023 206.425 257.952 166.463 256.55 156.648Z" fill="url(#paint1_linear_12:325)"/>
<path d="M235.415 109.896C227.366 100.504 232.061 134.493 235.415 152.661C236.464 158.699 251.505 150.146 258.894 145.114C258.894 153.779 266.777 171.947 298.305 175.301C337.716 179.494 349.101 163.15 355.345 148.783C358.181 142.256 370.637 148.783 372.676 145.114C377.195 136.983 364.18 152.661 357.841 109.896C355.806 96.1658 338.555 69.6465 306.691 78.8703C281.199 86.2494 264.205 116.045 258.894 130.021C254.422 127.226 243.465 119.288 235.415 109.896Z" fill="#FFC101"/>
<path d="M256.086 139.248C238.799 139.691 261.442 134.631 274.925 132.045H335.874C316.481 134.261 273.374 138.805 256.086 139.248Z" fill="#EAB101"/>
<path d="M346.653 96.1412C342.391 96.4691 334.26 101.846 335.834 120.73C337.408 139.615 358.456 144.008 368.783 143.844" stroke="#FF6A08"/>
<path d="M264.521 133.395C251.659 134.929 230.607 138.21 249.299 139.059C272.663 140.121 322.931 133.395 333.905 136.227" stroke="#FF6A08"/>
<path d="M351.645 117.585C352.876 115.671 354.21 116.788 354.723 117.585C356.09 120.834 354.723 125.792 351.645 124.253C348.568 122.715 350.106 119.979 351.645 117.585Z" fill="black"/>
<path d="M318.995 178.954C308.23 183.373 280.853 193.028 257.464 196.292M308.117 178.954C295.312 182.694 267.254 190.172 257.464 190.173M293.499 176.914C284.094 178.954 263.175 182.897 254.744 182.354M278.541 173.175C274.801 173.175 265.351 173.175 257.464 173.175M270.042 168.075H258.824M332.962 77.8374C324.091 65.5646 304.747 39.7068 298.331 34.4574M322.755 77.8374C316.224 68.6024 302.196 49.4035 298.331 46.4872M311.09 77.8374C306.41 71.3972 296.341 58.0794 293.499 56.3297M301.976 77.8374L289.217 67.6303M293.499 81.8473L285.572 76.0147M289.217 86.9508L281.198 84.7636" stroke="#FFC101"/>
<path d="M31.1345 47.7033C34.0895 47.2108 39.1132 48.8854 35.5671 59.5236C31.1345 72.8215 14.9306 79.5557 0.950806 66.8468" stroke="#78BCFF" stroke-linecap="round"/>
<path d="M38.5233 28.8145C43.4819 24.425 55.74 14.8656 65.1042 11.7442M50.2081 26.7748C55.573 22.6292 66.5674 15.4509 77.2973 11.7442M60.2106 26.7748C66.7319 22.9013 80.6279 14.6541 88.0415 12.6536M70.1254 26.7748C76.4506 23.3916 88.9241 16.7723 96.5731 14.7129M80.6867 26.7748C85.1977 24.4213 96.0142 19.2729 103.192 17.5077M90.248 28.8145C93.8273 26.8107 102.604 22.156 109.076 19.5671M99.3679 30.3051C102.506 28.54 110.282 24.5684 116.284 22.8032M108.194 32.0703C111.185 30.6974 118.461 27.7162 123.639 26.7748M115.549 34.2767C118.834 33.5412 126.11 32.0703 128.934 32.0703M122.315 36.9245C125.796 36.9245 133.347 36.9245 135.701 36.9245M131.288 41.1903C133.543 41.2393 139.143 41.7198 143.497 43.2496" stroke="#5094FB" stroke-linecap="round"/>
<path d="M21.6011 50.9799C20.3264 50.3426 22.1323 48.9693 23.1945 48.3623C23.498 47.9829 24.4009 47.4518 25.5845 48.3623C27.064 49.5004 23.1945 51.7765 21.6011 50.9799Z" fill="black"/>
<defs>
<linearGradient id="paint0_linear_12:325" x1="135.827" y1="30.0544" x2="57.5258" y2="21.6439" gradientUnits="userSpaceOnUse">
<stop stop-color="#1469E9"/>
<stop offset="1" stop-color="#3C80E7"/>
</linearGradient>
<linearGradient id="paint1_linear_12:325" x1="300.774" y1="31.0444" x2="300.774" y2="202.527" gradientUnits="userSpaceOnUse">
<stop stop-color="#E4AC00"/>
<stop offset="0.375" stop-color="#FFC101"/>
<stop offset="0.713542" stop-color="#FEC001"/>
<stop offset="1" stop-color="#E6AD00"/>
</linearGradient>
</defs>
</svg>
