<svg xmlns="http://www.w3.org/2000/svg" viewBox="0 0 463.1128 74.0801"><title
  >GiveDirectly</title><path
    d="M28.16 27.28h21.92v24.16a30.943 30.943 0 0 1-10.48 6.32A36.082 36.082 0 0 1 27.04 60a30.17 30.17 0 0 1-11.88-2.16 22.514 22.514 0 0 1-8.44-6.08 25.817 25.817 0 0 1-5.04-9.48A42.332 42.332 0 0 1 0 30a39.339 39.339 0 0 1 1.84-12.48 27.46 27.46 0 0 1 5.24-9.44 22.478 22.478 0 0 1 8.28-6A27.486 27.486 0 0 1 26.24 0a29.316 29.316 0 0 1 9.48 1.36 20.03 20.03 0 0 1 6.72 3.76 18.631 18.631 0 0 1 4.4 5.6 25.941 25.941 0 0 1 2.36 6.88l-11.84 1.52a23.108 23.108 0 0 0-1.16-3.8 7.75 7.75 0 0 0-1.96-2.8 8.45 8.45 0 0 0-3.2-1.76 16.318 16.318 0 0 0-4.8-.6q-6.96 0-10.4 5.2Q12.4 20.561 12.4 30q0 9.522 3.48 14.68t11.32 5.16a24.716 24.716 0 0 0 6.52-.76 20.032 20.032 0 0 0 5.32-2.36V37.2H28.16z"
    fill="#0b5845"
  /><path
    data-name="fullLogo"
    d="M58.96 1.44h11.52v10.08H58.96zm.16 15.36h11.2v41.76h-11.2zM75.999 16.8h12.96l9.36 29.04 9.36-29.04h12.4l-16.48 41.76h-11.2zM161.518 45.52q-1.121 7.04-5.64 10.68-4.52 3.64-13.16 3.64-10.4 0-15.64-5.76t-5.24-16.32a27.042 27.042 0 0 1 1.52-9.4 19.947 19.947 0 0 1 4.28-7 17.976 17.976 0 0 1 6.6-4.36 23.406 23.406 0 0 1 8.48-1.48q9.6 0 14.44 5.52t4.84 14.88v4.48h-28.96q.159 5.04 2.56 7.88t7.2 2.84q6.64 0 7.84-5.6zm-10.32-12.48a9.816 9.816 0 0 0-2.12-6.72q-2.12-2.4-6.6-2.4a9.885 9.885 0 0 0-3.92.72 8.316 8.316 0 0 0-2.84 1.96 8.922 8.922 0 0 0-1.8 2.88 10.94 10.94 0 0 0-.72 3.56z"
    fill="#0b5845"
  /><path
    data-name="fullLogo"
    d="M171.277 1.44h21.36q13.119 0 20.44 7.12t7.32 21.12a34.984 34.984 0 0 1-2.04 12.48 24.262 24.262 0 0 1-5.88 9.04 24.502 24.502 0 0 1-9.36 5.52 39.337 39.337 0 0 1-12.48 1.84h-19.36zm19.6 46.96a21.225 21.225 0 0 0 7.92-1.32 13.042 13.042 0 0 0 5.32-3.8 15.943 15.943 0 0 0 3-5.88 28.12 28.12 0 0 0 .96-7.64 31.548 31.548 0 0 0-.84-7.56 14.78 14.78 0 0 0-2.68-5.72 12.224 12.224 0 0 0-4.76-3.6 17.832 17.832 0 0 0-7.16-1.28h-9.44v36.8zM229.277 1.44h11.52v10.08h-11.52zm.16 15.36h11.2v41.76h-11.2zM250.636 16.8h10.88v5.84a14.079 14.079 0 0 1 5.04-4.92 12.692 12.692 0 0 1 6.24-1.64 23.754 23.754 0 0 1 2.64.12q1.039.12 1.84.28l-1.36 10.16a19.775 19.775 0 0 0-4.72-.48 13.873 13.873 0 0 0-3.52.44 7.37 7.37 0 0 0-3.04 1.64 8.073 8.073 0 0 0-2.12 2.88 8.317 8.317 0 0 0-.68 3.28v24.16h-11.2zM318.556 45.52q-1.122 7.04-5.64 10.68-4.52 3.64-13.16 3.64-10.401 0-15.64-5.76t-5.24-16.32a27.042 27.042 0 0 1 1.52-9.4 19.947 19.947 0 0 1 4.28-7 17.974 17.974 0 0 1 6.6-4.36 23.41 23.41 0 0 1 8.48-1.48q9.6 0 14.44 5.52t4.84 14.88v4.48h-28.96q.16 5.04 2.56 7.88t7.2 2.84q6.639 0 7.84-5.6zm-10.32-12.48a9.814 9.814 0 0 0-2.12-6.72q-2.12-2.4-6.6-2.4a9.887 9.887 0 0 0-3.92.72 8.315 8.315 0 0 0-2.84 1.96 8.918 8.918 0 0 0-1.8 2.88 10.97 10.97 0 0 0-.72 3.56zM364.156 43.44q-.642 7.52-5.16 11.96-4.52 4.44-13.56 4.44a23.65 23.65 0 0 1-9.12-1.6 16.255 16.255 0 0 1-6.28-4.48 18.814 18.814 0 0 1-3.64-6.96 31.974 31.974 0 0 1-1.2-9.04 28.073 28.073 0 0 1 1.4-9.08 19.888 19.888 0 0 1 4.04-7.04 17.867 17.867 0 0 1 6.48-4.52 25.393 25.393 0 0 1 16.199-.52 15.382 15.382 0 0 1 5.32 3 13.419 13.419 0 0 1 3.36 4.6 20.593 20.593 0 0 1 1.6 5.88l-11.28 1.52a10.883 10.883 0 0 0-1.84-5.16q-1.44-1.96-4.96-1.96a7.697 7.697 0 0 0-4.24 1.08 7.872 7.872 0 0 0-2.68 2.92 13.437 13.437 0 0 0-1.4 4.2 29.423 29.423 0 0 0-.4 4.92 30.646 30.646 0 0 0 .4 5.04 14.14 14.14 0 0 0 1.36 4.24 7.552 7.552 0 0 0 2.64 2.92 7.702 7.702 0 0 0 4.24 1.08 6.864 6.864 0 0 0 5.2-1.92 8.863 8.863 0 0 0 2.16-5.52zM373.914 25.52h-6.56V16.8h6.56V5.68h11.2V16.8h9.6v8.72h-9.6V44.8q0 3.281 1.36 4.44a5.233 5.233 0 0 0 3.52 1.16 22.262 22.262 0 0 0 2.28-.12 13.244 13.244 0 0 0 2.28-.44l1.6 8.24a26.678 26.678 0 0 1-4.52 1 33.464 33.464 0 0 1-4.2.28q-6.882 0-10.2-3.28-3.32-3.28-3.32-11.04zM402.154 1.44h11.2v57.12h-11.2zM424.473 64.48a17.685 17.685 0 0 0 4.72.64 5.625 5.625 0 0 0 3.6-1.08 8.3 8.3 0 0 0 2.32-3.8l1.28-3.52-17.36-39.92h12.96l9.76 27.44 9.12-27.44h12.24l-16.88 42.96q-1.44 3.6-2.72 6.28a18.37 18.37 0 0 1-2.92 4.48 10.213 10.213 0 0 1-3.92 2.68 15.774 15.774 0 0 1-5.64.88 30.375 30.375 0 0 1-4.12-.28 25.303 25.303 0 0 1-4.28-1z"
    fill="#232626"
  /></svg>
