<?xml version="1.0" encoding="utf-8"?>
<!-- Generator: Adobe Illustrator 16.0.0, SVG Export Plug-In . SVG Version: 6.00 Build 0)  -->
<!DOCTYPE svg PUBLIC "-//W3C//DTD SVG 1.1//EN" "http://www.w3.org/Graphics/SVG/1.1/DTD/svg11.dtd">
<svg version="1.1" id="Layer_1" xmlns="http://www.w3.org/2000/svg" xmlns:xlink="http://www.w3.org/1999/xlink" x="0px" y="0px"
	 width="500px" height="500px" viewBox="0 0 500 500" enable-background="new 0 0 500 500" xml:space="preserve">
<g>
	<defs>
		<rect id="SVGID_1_" width="500" height="500"/>
	</defs>
	<clipPath id="SVGID_2_">
		<use xlink:href="#SVGID_1_"  overflow="visible"/>
	</clipPath>
	<path clip-path="url(#SVGID_2_)" fill="#FFF" d="M470.689,192.854c-0.225-14.041-2.354-27.896-6.511-40.974
		c-4.155-13.077-10.336-25.377-18.661-36.307c-7.572-9.953-16.834-18.723-27.86-25.87c-11.028-7.147-23.819-12.672-38.453-16.133
		c-10.687-2.53-21.225-3.796-31.702-3.76c-10.476,0.035-20.891,1.372-31.329,4.047c-8.421,2.159-16.779,5.174-25.123,9.068
		c-7.297,3.405-14.58,7.481-21.886,12.243c-1.907,1.243-4.354,1.217-6.241-0.056c-2.403-1.621-4.886-3.181-7.448-4.688
		c-3.676-2.162-7.514-4.215-11.517-6.18c-7.491-3.683-14.964-6.648-22.452-8.91c-7.487-2.263-14.989-3.824-22.536-4.697
		c-7.596-0.88-15.2-1.065-22.845-0.571c-7.644,0.494-15.33,1.667-23.091,3.504c-14.634,3.461-27.426,8.986-38.453,16.133
		c-11.028,7.147-20.291,15.917-27.867,25.87c-8.32,10.93-14.499,23.23-18.654,36.307c-4.156,13.078-6.288,26.933-6.516,40.974
		c-0.213,13.686,1.281,28.094,4.317,42.808c2.804,13.583,6.923,27.425,12.227,41.198c0.803,2.085,0.335,4.478-1.286,6.015
		c-4.684,4.443-9.64,8.427-14.763,12.172c-6.095,4.455-12.428,8.574-18.825,12.732c-12.578,8.165-15.445,20.428-11.806,28.516
		c3.639,8.088,13.786,12.001,27.238,3.466c6.326-4.015,12.674-8.044,18.838-12.315c4.353-3.017,8.614-6.154,12.709-9.493
		c2.664-2.173,6.616-1.362,8.333,1.616c0.012,0.02,0.023,0.04,0.035,0.06c0.287,0.499,0.577,0.997,0.867,1.495
		c1.469,2.516,0.822,5.717-1.563,7.39c-7.202,5.051-16.163,10.965-25.195,16.757c-10.879,6.977-21.863,13.777-30.005,18.683
		c-13.001,7.822-15.631,19.603-11.704,27.454c3.926,7.853,14.41,11.776,27.635,3.887c8.734-5.222,20.342-12.374,31.869-19.743
		c9.675-6.185,19.293-12.521,27.107-17.993c2.425-1.698,5.703-1.174,7.545,1.143c6.736,8.471,13.923,16.601,21.516,24.277
		c8.835,8.934,18.219,17.253,28.081,24.78c2.021,1.542,4.05,2.985,6.119,4.377c2.067,1.392,4.174,2.732,6.35,4.067
		c1.597,0.984,3.066,1.872,4.4,2.662c1.333,0.791,2.532,1.483,3.589,2.076c2.155,1.203,4.336,2.354,6.604,3.419
		c2.269,1.066,4.625,2.049,7.13,2.918c17.047,5.908,35.243,2.532,49.179-7.113c13.935-9.646,23.608-25.563,23.608-44.737
		c0-10.86-3.209-21.018-8.728-29.575c-5.52-8.557-13.349-15.512-22.591-19.966c-13.56-6.516-22.769-0.896-25.984,7.451
		c-3.216,8.345-0.439,19.416,9.973,23.8c3.565,1.508,6.596,4.023,8.736,7.19c2.139,3.167,3.387,6.986,3.387,11.1
		c0,6.837-3.458,12.594-8.441,16.113s-11.492,4.802-17.591,2.688c-1.222-0.422-2.518-0.983-3.872-1.642s-2.766-1.415-4.219-2.228
		c-1.421-0.797-2.692-1.522-3.817-2.176c-1.124-0.652-2.101-1.233-2.933-1.744c-1.891-1.162-3.719-2.351-5.511-3.586
		c-1.792-1.236-3.549-2.518-5.295-3.871c-8.381-6.494-16.373-13.656-23.916-21.343c-7.542-7.687-14.635-15.896-21.218-24.484
		l0.746-0.61l0.745-0.609c9.796-8.093,19.092-16.428,27.458-24.814c7.358-7.377,13.996-14.794,19.62-22.12
		c1.387-1.807,3.681-2.568,5.89-2.016c3.716,0.931,7.407,1.609,11.06,2.05c4.844,0.584,9.623,0.749,14.308,0.524
		c8.294-0.4,16.248-2.011,23.728-4.661c7.48-2.651,14.487-6.341,20.888-10.898c6.305-4.497,12.02-9.831,17.009-15.837
		c4.988-6.004,9.252-12.679,12.657-19.854c3.324-7.01,5.84-14.513,7.424-22.35c1.583-7.838,2.235-16.009,1.833-24.356
		c-0.14-2.934-0.386-5.863-0.731-8.778c-0.347-2.914-0.791-5.814-1.33-8.688c-0.549-2.928-1.193-5.831-1.93-8.699
		c-0.737-2.869-1.565-5.702-2.481-8.491c-1.907-5.811-4.121-11.22-6.64-16.276c-1.634-3.279-3.396-6.41-5.286-9.405
		c-1.705-2.702-0.771-6.261,2.008-7.84c3.924-2.231,7.812-4.2,11.675-5.909c5.556-2.461,11.055-4.385,16.516-5.784
		c7.521-1.93,15.094-2.877,22.782-2.87c7.688,0.008,15.49,0.97,23.471,2.859c10.425,2.464,19.467,6.309,27.196,11.236
		c7.729,4.928,14.146,10.938,19.318,17.733c5.956,7.824,10.379,16.753,13.354,26.342c2.975,9.588,4.501,19.836,4.664,30.297v0.035
		v0.035c0.287,18.258-3.188,38.296-9.845,58.666s-16.493,41.072-28.93,60.658c-9.912,15.607-21.447,30.424-34.305,43.708
		c-12.858,13.285-27.041,25.038-42.246,34.521c-11.951,7.449-14.457,19.135-10.941,27.157c3.517,8.022,13.055,12.382,25.194,5.181
		c18.469-10.963,35.618-24.727,51.076-40.358c15.458-15.631,29.225-33.13,40.929-51.561c14.171-22.315,25.374-46.132,32.95-69.775
		c7.575-23.644,11.524-47.115,11.188-68.741h-0.002H470.689z M272.019,219.354c-2.13,4.492-4.772,8.651-7.844,12.371
		c-3.07,3.721-6.57,7.004-10.414,9.745c-3.753,2.675-7.843,4.841-12.189,6.394c-4.346,1.554-8.947,2.496-13.72,2.726
		c-4.187,0.198-8.548-0.143-13.037-1.087c-4.491-0.944-9.11-2.492-13.816-4.709c-5.87-2.772-10-3.76-13.45-2.644
		c-3.451,1.116-6.221,4.335-9.373,9.978c-4.422,7.911-11.152,16.427-19.434,25.175c-8.281,8.748-18.114,17.729-28.743,26.572
		c-0.813-1.393-1.612-2.788-2.397-4.188c-0.786-1.399-1.559-2.803-2.321-4.212c-9.313-17.232-16.601-34.962-21.501-52.278
		c-4.899-17.316-7.409-34.218-7.166-49.796v-0.035v-0.035c0.164-10.463,1.691-20.711,4.665-30.299
		c2.975-9.588,7.397-18.516,13.352-26.34c5.172-6.795,11.59-12.805,19.321-17.733c7.731-4.927,16.774-8.772,27.195-11.236
		c5.8-1.373,11.504-2.255,17.136-2.633c5.631-0.378,11.189-0.254,16.696,0.384c5.553,0.641,11.102,1.803,16.669,3.496
		c5.566,1.693,11.151,3.916,16.774,6.68c5.702,2.803,10.915,5.779,15.628,9.027c4.713,3.249,8.926,6.771,12.626,10.666
		c3.566,3.75,6.721,7.926,9.466,12.631c2.745,4.704,5.08,9.939,7.009,15.806c0.7,2.135,1.329,4.274,1.882,6.411
		c0.553,2.135,1.029,4.269,1.423,6.391c0.402,2.127,0.73,4.249,0.984,6.362c0.253,2.114,0.43,4.219,0.529,6.309
		c0.261,5.387-0.157,10.658-1.176,15.71C275.774,210.014,274.156,214.846,272.019,219.354 M143.773,194.168
		c-12.201-3.237-23.049,7.612-19.852,19.851c1.406,5.378,5.724,9.728,11.066,11.167c12.227,3.294,23.141-7.619,19.896-19.884
		C153.46,199.925,149.125,195.588,143.773,194.168"/>
	<path clip-path="url(#SVGID_2_)" fill="none" stroke="#FFF" stroke-miterlimit="10" d="M470.689,192.854
		c-0.225-14.041-2.354-27.896-6.511-40.974c-4.155-13.077-10.336-25.377-18.661-36.307c-7.572-9.953-16.834-18.723-27.86-25.87
		c-11.028-7.147-23.819-12.672-38.453-16.133c-10.687-2.53-21.225-3.796-31.702-3.76c-10.476,0.035-20.891,1.372-31.329,4.047
		c-8.421,2.159-16.779,5.174-25.123,9.068c-7.297,3.405-14.58,7.481-21.886,12.243c-1.907,1.243-4.354,1.217-6.241-0.056
		c-2.403-1.621-4.886-3.181-7.448-4.688c-3.676-2.162-7.514-4.215-11.517-6.18c-7.491-3.683-14.964-6.648-22.452-8.91
		c-7.487-2.263-14.989-3.824-22.536-4.697c-7.596-0.88-15.2-1.065-22.845-0.571c-7.644,0.494-15.33,1.667-23.091,3.504
		c-14.634,3.461-27.426,8.986-38.453,16.133c-11.028,7.147-20.291,15.917-27.867,25.87c-8.32,10.93-14.499,23.23-18.654,36.307
		c-4.156,13.078-6.288,26.933-6.516,40.974c-0.213,13.686,1.281,28.094,4.317,42.808c2.804,13.583,6.923,27.425,12.227,41.198
		c0.803,2.085,0.335,4.478-1.286,6.015c-4.684,4.443-9.64,8.427-14.763,12.172c-6.095,4.455-12.428,8.574-18.825,12.732
		c-12.578,8.165-15.445,20.428-11.806,28.516c3.639,8.088,13.786,12.001,27.238,3.466c6.326-4.015,12.674-8.044,18.838-12.315
		c4.353-3.017,8.614-6.154,12.709-9.493c2.664-2.173,6.616-1.362,8.333,1.616c0.012,0.02,0.023,0.04,0.035,0.06
		c0.287,0.499,0.577,0.997,0.867,1.495c1.469,2.516,0.822,5.717-1.563,7.39c-7.202,5.051-16.163,10.965-25.195,16.757
		c-10.879,6.977-21.863,13.777-30.005,18.683c-13.001,7.822-15.631,19.603-11.704,27.454c3.926,7.853,14.41,11.776,27.635,3.887
		c8.734-5.222,20.342-12.374,31.869-19.743c9.675-6.185,19.293-12.521,27.107-17.993c2.425-1.698,5.703-1.174,7.545,1.143
		c6.736,8.471,13.923,16.601,21.516,24.277c8.835,8.934,18.219,17.253,28.081,24.78c2.021,1.542,4.05,2.985,6.119,4.377
		c2.067,1.392,4.174,2.732,6.35,4.067c1.597,0.984,3.066,1.872,4.4,2.662c1.333,0.791,2.532,1.483,3.589,2.076
		c2.155,1.203,4.336,2.354,6.604,3.419c2.269,1.066,4.625,2.049,7.13,2.918c17.047,5.908,35.243,2.532,49.179-7.113
		c13.935-9.646,23.608-25.563,23.608-44.737c0-10.86-3.209-21.018-8.728-29.575c-5.52-8.557-13.349-15.512-22.591-19.966
		c-13.56-6.516-22.769-0.896-25.984,7.451c-3.216,8.345-0.439,19.416,9.973,23.8c3.565,1.508,6.596,4.023,8.736,7.19
		c2.139,3.167,3.387,6.986,3.387,11.1c0,6.837-3.458,12.594-8.441,16.113s-11.492,4.802-17.591,2.688
		c-1.222-0.422-2.518-0.983-3.872-1.642s-2.766-1.415-4.219-2.228c-1.421-0.797-2.692-1.522-3.817-2.176
		c-1.124-0.652-2.101-1.233-2.933-1.744c-1.891-1.162-3.719-2.351-5.511-3.586c-1.792-1.236-3.549-2.518-5.295-3.871
		c-8.381-6.494-16.373-13.656-23.916-21.343c-7.542-7.687-14.635-15.896-21.218-24.484l0.746-0.61l0.745-0.609
		c9.796-8.093,19.092-16.428,27.458-24.814c7.358-7.377,13.996-14.794,19.62-22.12c1.387-1.807,3.681-2.568,5.89-2.016
		c3.716,0.931,7.407,1.609,11.06,2.05c4.844,0.584,9.623,0.749,14.308,0.524c8.294-0.4,16.248-2.011,23.728-4.661
		c7.48-2.651,14.487-6.341,20.888-10.898c6.305-4.497,12.02-9.831,17.009-15.837c4.988-6.004,9.252-12.679,12.657-19.854
		c3.324-7.01,5.84-14.513,7.424-22.35c1.583-7.838,2.235-16.009,1.833-24.356c-0.14-2.934-0.386-5.863-0.731-8.778
		c-0.347-2.914-0.791-5.814-1.33-8.688c-0.549-2.928-1.193-5.831-1.93-8.699c-0.737-2.869-1.565-5.702-2.481-8.491
		c-1.907-5.811-4.121-11.22-6.64-16.276c-1.634-3.279-3.396-6.41-5.286-9.405c-1.705-2.702-0.771-6.261,2.008-7.84
		c3.924-2.231,7.812-4.2,11.675-5.909c5.556-2.461,11.055-4.385,16.516-5.784c7.521-1.93,15.094-2.877,22.782-2.87
		c7.688,0.008,15.49,0.97,23.471,2.859c10.425,2.464,19.467,6.309,27.196,11.236c7.729,4.928,14.146,10.938,19.318,17.733
		c5.956,7.824,10.379,16.753,13.354,26.342c2.975,9.588,4.501,19.836,4.664,30.297v0.035v0.035
		c0.287,18.258-3.188,38.296-9.845,58.666s-16.493,41.072-28.93,60.658c-9.912,15.607-21.447,30.424-34.305,43.708
		c-12.858,13.285-27.041,25.038-42.246,34.521c-11.951,7.449-14.457,19.135-10.941,27.157c3.517,8.022,13.055,12.382,25.194,5.181
		c18.469-10.963,35.618-24.727,51.076-40.358c15.458-15.631,29.225-33.13,40.929-51.561c14.171-22.315,25.374-46.132,32.95-69.775
		c7.575-23.644,11.524-47.115,11.188-68.741h-0.002H470.689z M272.019,219.354c-2.13,4.492-4.772,8.651-7.844,12.371
		c-3.07,3.721-6.57,7.004-10.414,9.745c-3.753,2.675-7.843,4.841-12.189,6.394c-4.346,1.554-8.947,2.496-13.72,2.726
		c-4.187,0.198-8.548-0.143-13.037-1.087c-4.491-0.944-9.11-2.492-13.816-4.709c-5.87-2.772-10-3.76-13.45-2.644
		c-3.451,1.116-6.221,4.335-9.373,9.978c-4.422,7.911-11.152,16.427-19.434,25.175c-8.281,8.748-18.114,17.729-28.743,26.572
		c-0.813-1.393-1.612-2.788-2.397-4.188c-0.786-1.399-1.559-2.803-2.321-4.212c-9.313-17.232-16.601-34.962-21.501-52.278
		c-4.899-17.316-7.409-34.218-7.166-49.796v-0.035v-0.035c0.164-10.463,1.691-20.711,4.665-30.299
		c2.975-9.588,7.397-18.516,13.352-26.34c5.172-6.795,11.59-12.805,19.321-17.733c7.731-4.927,16.774-8.772,27.195-11.236
		c5.8-1.373,11.504-2.255,17.136-2.633c5.631-0.378,11.189-0.254,16.696,0.384c5.553,0.641,11.102,1.803,16.669,3.496
		c5.566,1.693,11.151,3.916,16.774,6.68c5.702,2.803,10.915,5.779,15.628,9.027c4.713,3.249,8.926,6.771,12.626,10.666
		c3.566,3.75,6.721,7.926,9.466,12.631c2.745,4.704,5.08,9.939,7.009,15.806c0.7,2.135,1.329,4.274,1.882,6.411
		c0.553,2.135,1.029,4.269,1.423,6.391c0.402,2.127,0.73,4.249,0.984,6.362c0.253,2.114,0.43,4.219,0.529,6.309
		c0.261,5.387-0.157,10.658-1.176,15.71C275.774,210.014,274.156,214.846,272.019,219.354z M143.773,194.168
		c-12.201-3.237-23.049,7.612-19.852,19.851c1.406,5.378,5.724,9.728,11.066,11.167c12.227,3.294,23.141-7.619,19.896-19.884
		C153.46,199.925,149.125,195.588,143.773,194.168z"/>
</g>
</svg>
