<?xml version="1.0" encoding="utf-8"?>
<!-- Generator: Adobe Illustrator 16.0.0, SVG Export Plug-In . SVG Version: 6.00 Build 0)  -->
<!DOCTYPE svg PUBLIC "-//W3C//DTD SVG 1.1//EN" "http://www.w3.org/Graphics/SVG/1.1/DTD/svg11.dtd">
<svg version="1.1" id="Layer_1" xmlns="http://www.w3.org/2000/svg" xmlns:xlink="http://www.w3.org/1999/xlink" x="0px" y="0px"
	 width="600px" height="216px" viewBox="6 288 600 216" enable-background="new 6 288 600 216" xml:space="preserve">
<path id="Text2_1_" fill="#6D7172" d="M510.933,441.113c0,4.983-1.137,8.742-3.41,11.19c-2.272,2.448-5.683,3.76-10.229,3.76
	c-4.547,0-7.956-1.224-10.316-3.76c-2.273-2.535-3.41-6.207-3.41-11.19v-33.485h-8.83V441.9c0,7.519,1.836,13.026,5.596,16.698
	c3.759,3.672,9.441,5.508,16.961,5.508c7.606,0,13.289-1.836,17.049-5.508c3.759-3.672,5.683-9.268,5.683-16.698v-34.272h-8.918
	v33.485H510.933z M293.323,462.795h9.442l6.382-14.163h21.857l6.295,14.163h9.442l-26.666-57.266L293.323,462.795z M321.213,425.813
	c0.35,1.049,0.699,1.923,1.049,2.798l5.683,12.589h-15.388l5.684-12.589c0.35-0.875,0.699-1.837,1.049-2.886
	s0.699-2.186,0.962-3.409C320.513,423.627,320.863,424.764,321.213,425.813z M600.197,415.321v-7.605h-30.775v55.079h30.775v-8.043
	h-21.77v-17.835h21.77v-7.869h-21.77v-13.813h21.77V415.321z M399.549,406.316c-4.109,0-7.956,0.699-11.453,2.099
	c-3.585,1.398-6.645,3.409-9.442,6.12c-2.711,2.71-4.809,5.77-6.295,9.354c-1.399,3.585-2.186,7.344-2.186,11.366
	c0,4.021,0.699,7.868,2.186,11.453c1.486,3.584,3.497,6.645,6.207,9.354c2.711,2.71,5.858,4.721,9.442,6.12
	c3.585,1.398,7.52,2.098,11.716,2.098c3.322,0,6.382-0.437,9.268-1.311c2.798-0.875,5.42-2.099,7.868-3.848v-10.142
	c-2.71,2.36-5.508,4.109-8.48,5.246s-6.032,1.748-9.354,1.748c-5.596,0-10.229-1.923-13.901-5.77
	c-3.672-3.848-5.508-8.743-5.508-14.688c0-6.12,1.923-11.19,5.683-15.037c3.759-3.848,8.655-5.771,14.688-5.771
	c3.147,0,6.033,0.524,8.918,1.661c2.798,1.049,5.508,2.71,8.044,4.896l0.524-9.005c-2.798-1.924-5.596-3.322-8.568-4.284
	C405.844,406.841,402.783,406.316,399.549,406.316z M547.915,430.884c-0.263-0.087-0.612-0.262-1.137-0.524
	c-6.207-2.885-9.354-5.945-9.354-9.268c0-2.098,0.699-3.76,2.098-5.07c1.399-1.225,3.322-1.836,5.771-1.836
	c1.749,0,3.235,0.437,4.546,1.224c1.312,0.787,2.536,2.099,3.673,3.76l6.994-3.585c-1.05-2.973-2.973-5.158-5.684-6.732
	c-2.71-1.573-6.119-2.36-10.229-2.36c-4.983,0-8.918,1.399-11.978,4.196c-3.061,2.798-4.547,6.383-4.547,10.929
	c0,3.497,1.05,6.383,3.061,8.831c2.011,2.447,6.032,5.07,12.152,8.043c0.438,0.175,0.962,0.438,1.748,0.787
	c5.334,2.535,8.044,5.42,8.044,8.655c0,2.448-0.787,4.459-2.36,5.945c-1.574,1.486-3.672,2.186-6.383,2.186
	c-2.798,0-5.158-0.612-6.906-1.924c-1.836-1.312-3.061-3.147-3.76-5.595l-7.169,3.322c0.962,4.021,2.885,7.081,5.857,9.267
	c2.973,2.187,6.819,3.235,11.541,3.235c5.595,0,10.054-1.574,13.289-4.634c3.322-3.06,4.896-7.257,4.896-12.415
	c0-3.584-1.049-6.557-3.06-9.005C557.095,435.867,553.336,433.332,547.915,430.884z M420.182,462.795h9.442l6.382-14.163h21.857
	l6.295,14.163h9.442l-26.666-57.266L420.182,462.795z M448.071,425.813c0.35,1.049,0.699,1.923,1.049,2.798l5.684,12.589h-15.388
	l5.683-12.589c0.35-0.875,0.699-1.837,1.05-2.886c0.35-1.049,0.699-2.186,0.961-3.409
	C447.372,423.627,447.722,424.764,448.071,425.813z"/>
<path id="Text1_1_" fill="#6D7172" d="M325.496,385.071h9.53l6.47-14.338h22.119l6.383,14.338h9.442l-27.016-58.052L325.496,385.071
	z M353.648,347.564c0.35,1.049,0.699,2.011,1.049,2.798l5.684,12.765h-15.562l5.683-12.765c0.35-0.875,0.699-1.836,1.05-2.885
	c0.35-1.049,0.699-2.186,0.961-3.41C352.949,345.379,353.299,346.516,353.648,347.564z M332.054,329.205H293.41v7.694h14.863v48.085
	h9.092v-48.085h14.775v-7.694H332.054z M542.145,336.461c-2.885-2.797-6.032-4.896-9.704-6.295
	c-3.585-1.486-7.432-2.186-11.453-2.186c-4.022,0-7.869,0.7-11.453,2.186c-3.585,1.486-6.82,3.585-9.705,6.295
	c-2.885,2.798-4.983,5.945-6.47,9.53c-1.486,3.497-2.186,7.257-2.186,11.278c0,4.022,0.699,7.781,2.186,11.278
	s3.672,6.645,6.47,9.442c2.798,2.71,6.032,4.896,9.705,6.382c3.672,1.486,7.431,2.186,11.453,2.186c3.934,0,7.78-0.699,11.365-2.186
	s6.819-3.585,9.704-6.382c2.886-2.798,4.984-5.945,6.471-9.442s2.186-7.256,2.186-11.278c0-3.934-0.787-7.694-2.186-11.191
	C547.128,342.494,544.942,339.259,542.145,336.461z M539.784,365.225c-1.05,2.536-2.536,4.809-4.459,6.732
	c-1.924,2.011-4.196,3.497-6.645,4.546s-5.071,1.574-7.781,1.574c-2.798,0-5.421-0.524-7.868-1.574
	c-2.448-1.049-4.634-2.536-6.558-4.546c-1.923-2.011-3.409-4.196-4.459-6.732c-1.049-2.536-1.486-5.158-1.486-8.043
	c0-2.798,0.524-5.508,1.486-8.043c1.05-2.535,2.536-4.809,4.459-6.732c1.924-2.011,4.109-3.497,6.645-4.546
	c2.448-1.049,5.071-1.574,7.869-1.574c2.71,0,5.333,0.525,7.868,1.574c2.448,1.049,4.634,2.536,6.557,4.546
	c1.924,2.011,3.41,4.284,4.459,6.819c1.05,2.536,1.574,5.246,1.574,8.043C541.357,360.067,540.833,362.689,539.784,365.225z
	 M580.176,359.63c4.197-0.525,7.432-2.011,9.617-4.546c2.186-2.536,3.235-6.033,3.235-10.492c0-2.535-0.438-4.896-1.399-6.994
	s-2.272-3.847-4.021-5.246c-1.486-1.137-3.234-1.923-5.246-2.361c-2.011-0.437-4.896-0.699-8.655-0.699h-12.677v55.779h8.48v-25.004
	h1.049l18.535,25.004h10.229L580.176,359.63z M570.122,352.985v-16h1.661c4.546,0,7.693,0.612,9.354,1.923
	c1.661,1.224,2.535,3.41,2.535,6.47c0,2.885-0.786,4.809-2.36,5.945c-1.573,1.136-4.721,1.661-9.529,1.661H570.122z M452.88,385.071
	h9.093v-26.229h22.119v-7.956h-22.119v-13.901h22.119v-7.694H452.88V385.071z M409.777,355.433c2.623-0.787,4.634-2.186,5.945-4.197
	c1.399-2.011,2.099-4.458,2.099-7.431c0-2.448-0.438-4.721-1.399-6.819c-0.961-2.011-2.272-3.76-4.021-4.983
	c-1.312-0.962-2.973-1.749-4.896-2.099c-1.924-0.437-4.896-0.612-8.918-0.612h-14.076v55.779h14.163
	c5.334,0,9.093-0.35,11.366-0.961c2.273-0.612,4.109-1.749,5.683-3.235c1.486-1.399,2.535-3.147,3.322-5.158
	c0.787-2.011,1.225-4.197,1.225-6.47c0-3.76-0.962-6.82-2.798-9.268C415.636,357.444,413.013,355.958,409.777,355.433z
	 M393.429,336.811h3.497c4.634,0,7.693,0.612,9.354,1.836c1.661,1.224,2.448,3.41,2.448,6.47c0,2.797-0.874,4.809-2.71,5.945
	c-1.836,1.224-4.896,1.749-9.181,1.749h-3.497v-15.999H393.429z M409.952,372.744c-0.611,1.224-1.486,2.273-2.622,2.972
	c-0.962,0.612-2.187,1.049-3.76,1.312c-1.574,0.262-3.935,0.35-7.169,0.35h-2.973v-17.835h5.857c1.836,0,3.322,0.088,4.372,0.263
	c1.136,0.175,2.098,0.524,2.972,0.961c1.399,0.7,2.448,1.749,3.147,3.06c0.787,1.312,1.137,2.885,1.137,4.634
	C410.914,370.121,410.564,371.52,409.952,372.744z"/>
<rect id="Line_1_" x="251.532" y="293.359" fill="#6D7172" width="6.294" height="205.37"/>
<path id="Symbol_1_" fill="#9D4BA3" stroke="#9D4BA3" stroke-miterlimit="10" d="M216.036,369.597
	c-0.087-6.47-1.049-12.939-2.973-18.972s-4.809-11.715-8.655-16.786c-3.498-4.634-7.781-8.656-12.852-11.978
	s-11.016-5.857-17.835-7.431c-4.983-1.137-9.792-1.749-14.688-1.749c-4.809,0-9.705,0.612-14.513,1.836
	c-3.935,0.962-7.781,2.36-11.628,4.196c-3.41,1.574-6.732,3.498-10.142,5.683c-0.874,0.612-2.011,0.524-2.885,0
	c-1.137-0.787-2.273-1.486-3.41-2.186c-1.661-0.962-3.498-1.924-5.333-2.885c-3.497-1.661-6.907-3.06-10.404-4.109
	c-3.497-1.049-6.907-1.749-10.404-2.186c-3.497-0.437-6.994-0.524-10.579-0.262c-3.497,0.262-7.082,0.787-10.667,1.661
	c-6.732,1.574-12.677,4.196-17.835,7.431c-5.071,3.322-9.355,7.344-12.852,11.978c-3.847,5.071-6.732,10.753-8.656,16.786
	s-2.885,12.502-2.973,18.972c-0.087,6.295,0.612,13.027,2.011,19.846c1.312,6.295,3.235,12.677,5.683,19.059
	c0.35,0.962,0.175,2.099-0.612,2.798c-2.186,2.099-4.459,3.935-6.819,5.596c-2.798,2.099-5.771,3.935-8.743,5.857
	c-5.857,3.76-7.169,9.442-5.42,13.202c1.749,3.759,6.382,5.595,12.59,1.573c2.885-1.836,5.857-3.759,8.743-5.683
	c2.011-1.398,4.021-2.885,5.858-4.371c1.224-1.05,3.06-0.612,3.847,0.786l0,0c0.175,0.263,0.262,0.438,0.437,0.7
	c0.7,1.136,0.35,2.622-0.699,3.409c-3.322,2.36-7.519,5.071-11.628,7.781c-5.071,3.235-10.142,6.382-13.901,8.655
	c-6.033,3.585-7.256,9.093-5.42,12.678c1.836,3.584,6.645,5.42,12.765,1.836c4.021-2.448,9.442-5.684,14.775-9.093
	c4.458-2.886,8.917-5.771,12.502-8.306c1.137-0.787,2.623-0.524,3.498,0.524c3.147,3.935,6.47,7.693,9.967,11.19
	c4.109,4.109,8.393,7.956,13.027,11.453c0.961,0.7,1.836,1.399,2.797,2.012c0.962,0.611,1.924,1.224,2.973,1.923
	c0.7,0.438,1.399,0.874,2.011,1.224c0.612,0.351,1.137,0.7,1.661,0.962c0.962,0.524,2.011,1.05,3.06,1.574
	c1.049,0.524,2.099,0.962,3.322,1.312c7.869,2.71,16.349,1.137,22.731-3.322s10.929-11.803,10.929-20.721
	c0-4.983-1.486-9.705-4.021-13.727c-2.536-3.935-6.208-7.169-10.492-9.268c-6.295-2.973-10.579-0.437-12.065,3.41
	s-0.175,9.005,4.634,11.016c1.661,0.699,3.06,1.836,4.021,3.322c0.962,1.486,1.574,3.235,1.574,5.158
	c0,3.147-1.574,5.858-3.934,7.432c-2.273,1.661-5.333,2.186-8.131,1.224c-0.525-0.175-1.137-0.437-1.749-0.786
	c-0.612-0.263-1.312-0.612-1.924-1.05c-0.699-0.35-1.224-0.699-1.749-1.049c-0.524-0.263-0.961-0.612-1.399-0.787
	c-0.874-0.524-1.749-1.049-2.535-1.661c-0.787-0.611-1.661-1.137-2.448-1.748c-3.847-2.973-7.606-6.295-11.103-9.88
	c-3.498-3.584-6.732-7.344-9.792-11.365l0.35-0.263l0.35-0.262c4.546-3.76,8.83-7.606,12.677-11.453
	c3.41-3.41,6.47-6.82,9.092-10.229c0.612-0.874,1.661-1.224,2.71-0.962c1.749,0.438,3.41,0.787,5.158,0.962
	c2.273,0.262,4.459,0.35,6.645,0.262c3.847-0.175,7.519-0.961,11.016-2.186c3.497-1.224,6.732-2.973,9.705-5.07
	c2.885-2.099,5.595-4.547,7.869-7.345c2.273-2.797,4.284-5.857,5.857-9.18c1.574-3.235,2.71-6.732,3.41-10.316
	c0.699-3.584,1.049-7.432,0.874-11.278c-0.087-1.399-0.175-2.71-0.35-4.021c-0.175-1.312-0.35-2.71-0.612-4.022
	c-0.263-1.312-0.525-2.71-0.875-4.021c-0.35-1.312-0.699-2.623-1.137-3.935c-0.874-2.71-1.923-5.158-3.06-7.519
	c-0.787-1.486-1.574-2.972-2.448-4.371c-0.787-1.224-0.35-2.885,0.961-3.584c1.836-1.049,3.585-1.924,5.421-2.71
	c2.535-1.137,5.158-2.011,7.606-2.71c3.498-0.874,6.995-1.311,10.579-1.311s7.169,0.437,10.841,1.311
	c4.809,1.137,9.005,2.885,12.589,5.158c3.585,2.273,6.557,5.071,8.918,8.218c2.798,3.585,4.809,7.781,6.208,12.153
	c1.398,4.459,2.098,9.18,2.186,13.989l0,0l0,0c0.175,8.48-1.486,17.748-4.546,27.103c-3.06,9.442-7.606,18.972-13.376,28.064
	c-4.546,7.257-9.967,14.076-15.912,20.196c-5.945,6.12-12.502,11.628-19.584,15.999c-5.508,3.41-6.732,8.831-5.071,12.59
	c1.661,3.672,6.033,5.771,11.628,2.36c8.568-5.07,16.524-11.453,23.606-18.709c7.169-7.257,13.551-15.3,18.972-23.868
	c6.557-10.316,11.716-21.333,15.213-32.262C214.375,390.404,216.211,379.563,216.036,369.597L216.036,369.597L216.036,369.597z
	 M124.148,381.836c-0.961,2.098-2.186,4.022-3.672,5.683s-3.06,3.235-4.809,4.546c-1.749,1.224-3.672,2.273-5.683,2.973
	c-2.011,0.7-4.109,1.137-6.382,1.225c-1.924,0.087-3.935-0.088-6.033-0.525s-4.197-1.137-6.382-2.186
	c-2.71-1.311-4.634-1.749-6.208-1.224c-1.574,0.524-2.885,2.011-4.371,4.634c-2.011,3.672-5.159,7.606-9.005,11.628
	s-8.393,8.218-13.289,12.327c-0.35-0.612-0.787-1.312-1.137-1.923c-0.35-0.612-0.699-1.312-1.049-1.924
	c-4.284-7.956-7.693-16.175-9.967-24.218c-2.273-8.043-3.41-15.825-3.322-23.081l0,0l0,0c0.087-4.809,0.787-9.617,2.186-13.989
	c1.399-4.458,3.41-8.568,6.207-12.152c2.361-3.147,5.333-5.945,8.918-8.218c3.584-2.273,7.781-4.022,12.59-5.158
	c2.71-0.612,5.333-1.049,7.956-1.224c2.623-0.175,5.158-0.087,7.693,0.175c2.536,0.262,5.158,0.875,7.694,1.661
	s5.158,1.836,7.781,3.06c2.623,1.312,5.071,2.71,7.256,4.196c2.186,1.486,4.109,3.147,5.858,4.896
	c1.661,1.749,3.147,3.672,4.372,5.858c1.311,2.186,2.36,4.634,3.235,7.344c0.35,0.962,0.612,2.011,0.874,2.973
	c0.262,0.962,0.437,2.011,0.7,2.973c0.175,0.962,0.35,1.923,0.437,2.973c0.087,0.962,0.175,1.923,0.262,2.885
	c0.087,2.535-0.087,4.896-0.524,7.256C125.897,377.465,125.11,379.738,124.148,381.836z M64.785,370.121
	c-5.683-1.486-10.667,3.497-9.18,9.18c0.612,2.448,2.623,4.458,5.158,5.158c5.683,1.486,10.667-3.497,9.18-9.18
	C69.244,372.832,67.232,370.82,64.785,370.121z"/>
</svg>
