<svg xmlns="http://www.w3.org/2000/svg" viewBox="0 0 380 117.62"><defs><style>.cls-1,.cls-3{fill:#787b7b;}.cls-2{fill:#00b597;}.cls-3{font-size:38px;font-family:TrebuchetMS-Bold, Trebuchet MS;font-weight:700;letter-spacing:0em;}.cls-4{letter-spacing:-0.06em;}.cls-5{letter-spacing:0em;}.cls-6{fill:none;}</style></defs><title>Asset 1</title><g id="Layer_2" data-name="Layer 2"><g id="Layer_1-2" data-name="Layer 1"><rect id="Line" class="cls-1" x="136.94" width="3.61" height="117.62"/><path id="Symbol" class="cls-2" d="M120.36,43.67a34.56,34.56,0,0,0-6.65-20.49A30.19,30.19,0,0,0,96.18,12.05a34,34,0,0,0-16.66.08,42.11,42.11,0,0,0-13.26,6.2,40.72,40.72,0,0,0-5.83-3.45,36.37,36.37,0,0,0-11.89-3.61,35,35,0,0,0-12.14.78A30.19,30.19,0,0,0,18.87,23.18a34.64,34.64,0,0,0-6.66,20.49,61.31,61.31,0,0,0,4.73,23.17,55.76,55.76,0,0,1-9.57,7.29c-6.65,4.33-3,13,4.08,8.47a72.48,72.48,0,0,0,9.66-6.91c.58,1.06,1.18,2.11,1.81,3.14-4.08,3-11.39,7.59-15.7,10.19-6.87,4.14-2.78,12.49,4.21,8.3,4.62-2.76,12.28-7.58,16.72-10.8a76,76,0,0,0,14,14.11c1.07.81,2.14,1.53,3.29,2.24.85.52,1.56.94,2.12,1.25a21.6,21.6,0,0,0,3.63,1.68,14.53,14.53,0,0,0,11-26.87c-7.17-3.46-9.74,6-4.23,8.28A5.25,5.25,0,0,1,54.22,97a13.55,13.55,0,0,1-2.14-1c-.75-.43-1.34-.77-1.78-1a31.59,31.59,0,0,1-2.86-2A66.35,66.35,0,0,1,35.51,80.85l.39-.32a77.8,77.8,0,0,0,13-13.24,23.14,23.14,0,0,0,7.67.95A22,22,0,0,0,68.4,64.11a24.37,24.37,0,0,0,7.84-9.46,26,26,0,0,0,2.45-12.37,34,34,0,0,0-.54-4.63A36.26,36.26,0,0,0,77,33.09,30,30,0,0,0,73,25a31.64,31.64,0,0,1,8.82-3.91A24.93,24.93,0,0,1,94,21.1a21.07,21.07,0,0,1,12.29,7.68,25.32,25.32,0,0,1,4.76,15v0c.16,9.68-3.67,21.25-10.24,31.63A66.37,66.37,0,0,1,80.61,96.17c-6.32,4-2.65,12.39,3.77,8.57,9.76-5.81,18.13-14.59,24.32-24.36,7.49-11.83,11.84-25.25,11.66-36.71Zm-52.51,7A15.19,15.19,0,0,1,63,56.55,12.75,12.75,0,0,1,56.17,59a14.76,14.76,0,0,1-7.09-1.54c-3.11-1.47-4.37-1-6,2-2.33,4.19-7.11,9-12.73,13.71-.43-.74-.85-1.48-1.25-2.22-4.92-9.14-7.71-18.8-7.58-27.06v0a25.39,25.39,0,0,1,4.77-15A21.07,21.07,0,0,1,38.54,21.1a25.5,25.5,0,0,1,8.94-.59,27,27,0,0,1,8.84,2.69,25.78,25.78,0,0,1,7.47,5.22A19.45,19.45,0,0,1,68.15,36,26.8,26.8,0,0,1,69,39.35a24.41,24.41,0,0,1,.4,3.36A16.74,16.74,0,0,1,67.85,50.69Zm-36.41-5A4.24,4.24,0,1,0,35.69,50,4.24,4.24,0,0,0,31.44,45.73Z"/><text class="cls-3" transform="translate(159 51.21)">SEARCH FOR<tspan class="cls-4"><tspan x="0" y="44">A</tspan><tspan class="cls-5" x="21.85" y="44" xml:space="preserve"> CAUSE</tspan></tspan></text><rect class="cls-6" width="380" height="117.62"/></g></g></svg>