<svg id="Layer_1" data-name="Layer 1" xmlns="http://www.w3.org/2000/svg" viewBox="0 0 380.56 117.6"><defs><style>.cls-1{fill:none;}.cls-2{fill:#787b7b;}.cls-3{fill:#00b597;}.cls-4{isolation:isolate;}.cls-5{fill:none;}</style></defs><title>search-logo-with-text - v2</title><rect class="cls-1" width="380" height="117.6"/><g id="Layer_1-2" data-name="Layer 1-2"><rect id="Line" class="cls-2" x="136.9" width="3.6" height="117.6"/><path id="Symbol" class="cls-3" d="M120.4,43.7a34.45,34.45,0,0,0-6.7-20.5A29.91,29.91,0,0,0,96.2,12.1a33.73,33.73,0,0,0-16.7.1,44.8,44.8,0,0,0-13.3,6.2A33.85,33.85,0,0,0,60.4,15a35,35,0,0,0-11.9-3.6,32.74,32.74,0,0,0-12.1.8A30.08,30.08,0,0,0,18.9,23.3a34.91,34.91,0,0,0-6.7,20.5A63.63,63.63,0,0,0,16.9,67a52.85,52.85,0,0,1-9.6,7.3c-6.7,4.3-3,13,4.1,8.5a71.38,71.38,0,0,0,9.7-6.9c.6,1.1,1.2,2.1,1.8,3.1-4.1,3-11.4,7.6-15.7,10.2-6.9,4.1-2.8,12.5,4.2,8.3,4.6-2.8,12.3-7.6,16.7-10.8a74.77,74.77,0,0,0,14,14.1,37.84,37.84,0,0,0,3.3,2.2c.8.5,1.6.9,2.1,1.2a29.24,29.24,0,0,0,3.6,1.7,14.58,14.58,0,0,0,18.6-8.7,14.39,14.39,0,0,0-7.6-18.1c-7.2-3.5-9.7,6-4.2,8.3a5.32,5.32,0,0,1,2.6,7,5.19,5.19,0,0,1-6.3,2.8,13.55,13.55,0,0,1-2.1-1c-.8-.4-1.3-.8-1.8-1-1-.6-1.9-1.3-2.9-2A62.53,62.53,0,0,1,35.5,81l.4-.3a81.17,81.17,0,0,0,13-13.2,22.29,22.29,0,0,0,7.7.9,21.54,21.54,0,0,0,11.8-4.1,23.28,23.28,0,0,0,7.8-9.5,25.27,25.27,0,0,0,2.4-12.4c-.1-1.6-.3-3.1-.5-4.6a39,39,0,0,0-1.2-4.6,30.58,30.58,0,0,0-4-8.1,31.54,31.54,0,0,1,8.8-3.9,25.18,25.18,0,0,1,12.2,0,20.72,20.72,0,0,1,12.3,7.7,26,26,0,0,1,4.8,15h0c.2,9.7-3.7,21.2-10.2,31.6A66.82,66.82,0,0,1,80.6,96.3c-6.3,4-2.7,12.4,3.8,8.6,9.8-5.8,18.1-14.6,24.3-24.4C116.2,68.5,120.5,55.1,120.4,43.7Zm-52.5,7A15.25,15.25,0,0,1,63,56.5,13.14,13.14,0,0,1,56.2,59a14.43,14.43,0,0,1-7.1-1.5c-3.1-1.5-4.4-1-6,2-2.3,4.2-7.1,9-12.7,13.7A23.86,23.86,0,0,1,29.2,71c-4.9-9.1-7.7-18.8-7.6-27.1h0a25.29,25.29,0,0,1,4.8-15,21,21,0,0,1,12.3-7.8,26.59,26.59,0,0,1,8.9-.6,26.51,26.51,0,0,1,8.8,2.7,28,28,0,0,1,7.5,5.2A20.76,20.76,0,0,1,68.3,36a19.81,19.81,0,0,1,.8,3.3c.2,1.1.3,2.2.4,3.4a19.72,19.72,0,0,1-1.6,8Zm-36.5-5a4.25,4.25,0,0,0,.1,8.5,4.14,4.14,0,0,0,4.2-4.1,4.35,4.35,0,0,0-4.3-4.4Z"/><g class="cls-4"><path class="cls-2" d="M160.48,49.71l1.79-4.33a9.74,9.74,0,0,0,5.62,2q4.25,0,4.25-3a4.19,4.19,0,0,0-1-2.65A12.52,12.52,0,0,0,167,38.94a20.35,20.35,0,0,1-4.22-2.58A7,7,0,0,1,161.12,34a7.83,7.83,0,0,1-.58-3.08,6.74,6.74,0,0,1,2.31-5.23,8.56,8.56,0,0,1,5.93-2.08q4.71,0,6.92,1.77l-1.47,4.15a9.07,9.07,0,0,0-5.36-1.82,3.6,3.6,0,0,0-2.59.89,3,3,0,0,0-.92,2.29q0,2.34,5.18,4.86a16.65,16.65,0,0,1,3.93,2.46,7.52,7.52,0,0,1,1.84,2.61,8.52,8.52,0,0,1,.63,3.33,6.73,6.73,0,0,1-2.6,5.44,10.72,10.72,0,0,1-7,2.13A12.46,12.46,0,0,1,160.48,49.71Z"/><path class="cls-2" d="M186,28.31v6.37h9v4.1h-9v8.14h12.32v4.29H181.21V24h17.35v4.28Z"/><path class="cls-2" d="M218.69,51.21l-2-5.51h-9.32l-1.89,5.51h-5.36L211,23.66h2.12L224,51.21ZM212,32l-3.27,10h6.53Z"/><path class="cls-2" d="M242.22,51.21,235,40c-.73,0-1.75,0-3.06-.13V51.21h-5V24c.27,0,1.32-.05,3.14-.14s3.28-.14,4.39-.14q10.37,0,10.36,8a7.37,7.37,0,0,1-1.43,4.4,7.62,7.62,0,0,1-3.6,2.8l8,12.25Zm-10.32-23v7.55c.89.08,1.57.11,2,.11a8.81,8.81,0,0,0,4.43-.85c.93-.57,1.4-1.68,1.4-3.32a2.89,2.89,0,0,0-1.5-2.8,10.64,10.64,0,0,0-4.74-.8A13.39,13.39,0,0,0,231.9,28.22Z"/><path class="cls-2" d="M268.73,25.47l-2,4q-1.62-1.61-5.2-1.61A6.69,6.69,0,0,0,256,30.7a11.54,11.54,0,0,0-2.18,7.21,10.93,10.93,0,0,0,2,6.92,6.5,6.5,0,0,0,5.37,2.56,7.24,7.24,0,0,0,6-2.75l2.25,3.9q-3,3.14-8.65,3.13T252,47.93q-3.15-3.75-3.16-10.23a14.89,14.89,0,0,1,3.5-10.08,11.31,11.31,0,0,1,8.95-4.06A13.1,13.1,0,0,1,268.73,25.47Z"/><path class="cls-2" d="M289,51.21V39H278.18V51.21h-4.83V24h4.83V34.68H289V24h4.77V51.21Z"/><path class="cls-2" d="M315.6,28.31v6.37h9.56v4.1H315.6V51.21h-4.82V24h17.9v4.28Z"/><path class="cls-2" d="M331.65,37.39a15.36,15.36,0,0,1,3.18-9.83,10.31,10.31,0,0,1,8.51-4q5.87,0,9,3.64t3.1,10.21q0,6.57-3.24,10.42T343,51.67a9.94,9.94,0,0,1-8.4-3.82Q331.65,44,331.65,37.39Zm5,0a14,14,0,0,0,1.62,7.38A5.17,5.17,0,0,0,343,47.39a6.47,6.47,0,0,0,5.52-2.56q1.9-2.56,1.9-7.44,0-9.55-7.05-9.56a5.58,5.58,0,0,0-4.95,2.59A12.42,12.42,0,0,0,336.66,37.39Z"/><path class="cls-2" d="M375,51.21,367.74,40c-.73,0-1.75,0-3.06-.13V51.21h-5V24c.27,0,1.32-.05,3.13-.14s3.29-.14,4.4-.14q10.35,0,10.36,8a7.37,7.37,0,0,1-1.43,4.4,7.72,7.72,0,0,1-3.6,2.8l8,12.25Zm-10.32-23v7.55c.89.08,1.57.11,2,.11a8.74,8.74,0,0,0,4.42-.85c.94-.57,1.41-1.68,1.41-3.32a2.9,2.9,0,0,0-1.51-2.8,10.59,10.59,0,0,0-4.73-.8A13.39,13.39,0,0,0,364.68,28.22Z"/></g><g class="cls-4"><path class="cls-2" d="M177.65,95.21l-2-5.51h-9.31l-1.89,5.51h-5.37l10.84-27.55H172L183,95.21ZM171,76l-3.27,10h6.53Z"/></g><g class="cls-4"><path class="cls-2" d="M213.71,69.47l-2,4q-1.6-1.6-5.19-1.61A6.72,6.72,0,0,0,201,74.7a11.6,11.6,0,0,0-2.17,7.21,10.87,10.87,0,0,0,2,6.92,6.5,6.5,0,0,0,5.37,2.56,7.24,7.24,0,0,0,6-2.75l2.24,3.9c-2,2.09-4.85,3.13-8.64,3.13s-6.75-1.25-8.85-3.74S193.78,86,193.78,81.7a14.89,14.89,0,0,1,3.5-10.08,11.31,11.31,0,0,1,8.95-4.06A13.1,13.1,0,0,1,213.71,69.47Z"/><path class="cls-2" d="M234.19,95.21l-2-5.51h-9.32L221,95.21h-5.36l10.84-27.55h2.11l10.93,27.55ZM227.53,76l-3.26,10h6.53Z"/><path class="cls-2" d="M242.4,68h4.82V86.45a4.68,4.68,0,0,0,5,4.94A5.76,5.76,0,0,0,256.3,90a4.75,4.75,0,0,0,1.46-3.68V68h4.82v18.7a8.11,8.11,0,0,1-2.81,6.57,11.24,11.24,0,0,1-7.5,2.37q-4.74,0-7.3-2.32a8.45,8.45,0,0,1-2.57-6.64Z"/><path class="cls-2" d="M266.85,93.71l1.78-4.33a9.78,9.78,0,0,0,5.62,2c2.84,0,4.25-1,4.25-3a4.18,4.18,0,0,0-1-2.65,12.59,12.59,0,0,0-4.13-2.83,20.2,20.2,0,0,1-4.21-2.58A7,7,0,0,1,267.49,78a7.83,7.83,0,0,1-.58-3.08,6.74,6.74,0,0,1,2.31-5.23,8.54,8.54,0,0,1,5.92-2.08c3.15,0,5.45.59,6.93,1.77l-1.47,4.15a9.07,9.07,0,0,0-5.36-1.82,3.57,3.57,0,0,0-2.59.89,3,3,0,0,0-.92,2.29q0,2.34,5.18,4.86a16.65,16.65,0,0,1,3.93,2.46,7.66,7.66,0,0,1,1.84,2.61,8.52,8.52,0,0,1,.63,3.33,6.71,6.71,0,0,1-2.61,5.44,10.71,10.71,0,0,1-7,2.13A12.44,12.44,0,0,1,266.85,93.71Z"/><path class="cls-2" d="M292.4,72.31v6.37h9v4.1h-9v8.14h12.32v4.29H287.58V68h17.34v4.28Z"/></g><rect class="cls-5" width="380" height="117.6"/></g></svg>